HIERARCHY
ROOT Hips
{
  OFFSET 155.048 98.1286 3.93448
  CHANNELS 6 Xposition Yposition Zposition Zrotation Xrotation Yrotation
  JOINT RightUpLeg
  {
    OFFSET -8.9458 -8.66707 0.101652
    CHANNELS 3 Zrotation Xrotation Yrotation
    JOINT RightLeg
    {
      OFFSET 0 -44.4227 1.3727
      CHANNELS 3 Zrotation Xrotation Yrotation
      JOINT RightFoot
      {
        OFFSET 0.253549 -42.0924 -1.46059
        CHANNELS 3 Zrotation Xrotation Yrotation
        JOINT RightToes
        {
          OFFSET 0.04 -4.41509 8.4991
          CHANNELS 3 Zrotation Xrotation Yrotation
          End Site
          {
            OFFSET -0.08 -0.137448 9.77979
          }
        }
      }
    }
  }
  JOINT Spine
  {
    OFFSET 0 11.8905 0
    CHANNELS 3 Zrotation Xrotation Yrotation
    JOINT Spine1
    {
      OFFSET 0 25.6574 0.127663
      CHANNELS 3 Zrotation Xrotation Yrotation
      JOINT Head
      {
        OFFSET 0 8.73416 0.011341
        CHANNELS 3 Zrotation Xrotation Yrotation
        End Site
        {
          OFFSET -0.29 12.7742 2.51395
        }
      }
      JOINT LeftShoulder1
      {
        OFFSET 8.99 -0.362252 -0.22
        CHANNELS 3 Zrotation Xrotation Yrotation
        JOINT LeftArm
        {
          OFFSET 10.2827 -0.00337999 0.322123
          CHANNELS 3 Zrotation Xrotation Yrotation
          JOINT LeftForeArm
          {
            OFFSET 26.2597 0.099144 -1.42434
            CHANNELS 3 Zrotation Xrotation Yrotation
            JOINT LeftHand
            {
              OFFSET 22.0902 0.085362 1.02216
              CHANNELS 3 Zrotation Xrotation Yrotation
              End Site
              {
                OFFSET 13.419 -0.6 1.50291
              }
            }
          }
        }
      }
      JOINT RightShoulder
      {
        OFFSET -8.99 -0.362252 -0.22
        CHANNELS 3 Zrotation Xrotation Yrotation
        JOINT RightArm
        {
          OFFSET -10.2827 -0.00338 0.322123
          CHANNELS 3 Zrotation Xrotation Yrotation
          JOINT RightForeArm
          {
            OFFSET -26.364 0.099144 -1.42434
            CHANNELS 3 Zrotation Xrotation Yrotation
            JOINT RightHand
            {
              OFFSET -22.0324 0.085362 1.02216
              CHANNELS 3 Zrotation Xrotation Yrotation
              End Site
              {
                OFFSET -13.3284 -0.6 1.50291
              }
            }
          }
        }
      }
    }
  }
  JOINT LeftUpLeg
  {
    OFFSET 8.9458 -8.66707 0.101652
    CHANNELS 3 Zrotation Xrotation Yrotation
    JOINT LeftLeg
    {
      OFFSET 0 -44.4227 1.3727
      CHANNELS 3 Zrotation Xrotation Yrotation
      JOINT LeftFoot
      {
        OFFSET -0.253549 -42.0924 -1.46059
        CHANNELS 3 Zrotation Xrotation Yrotation
        JOINT LeftToes
        {
          OFFSET -0.04 -4.41509 8.4991
          CHANNELS 3 Zrotation Xrotation Yrotation
          End Site
          {
            OFFSET 0.08 -0.047448 9.77979
          }
        }
      }
    }
  }
}
MOTION
Frames:	14
Frame Time:	0.0333333
70.5737 94.9304 4.5017 -36.8921 9.40317 -75.0681 1.70075 -67.1956 -5.31293 -174.433 85.9454 170.68 18.6187 13.9814 -3.55644 0.0462048 0.000530889 0.662642 2.71645 14.7764 -0.708326 2.09081 5.51841 -0.223017 1.02717 -2.7736 0.781499 -39.5471 8.42813 -14.7791 -23.2433 -14.5686 -1.03874 -29.0886 5.54855 -51.0692 13.1993 9.77098 4.3452 46.4651 11.5805 17.6445 15.1637 -45.763 -29.1422 5.9904 29.448 2.88256 -3.02987 9.74788 2.4357 13.4902 16.2112 -0.160322 1.39677 43.4321 20.6872 -1.06328 -24.1445 -0.0246312 -1.31982e-009 8.75243e-006 -1.47702e-008 
69.8937 94.5751 4.53539 -35.5151 8.95609 -75.5218 5.04019 -64.9506 -1.90871 -179.041 73.8756 -179.685 19.2403 15.5337 -3.92819 0.0462048 0.000530889 0.662642 1.34033 12.1313 -0.234979 2.73885 6.65513 -0.560833 1.07805 -2.01594 1.07047 -39.2324 8.17513 -14.364 -23.4183 -14.6039 2.76111 -31.3042 5.53842 -52.8136 11.6744 9.79518 4.46027 46.2142 11.4343 17.4847 14.4545 -45.7953 -30.3326 5.81379 29.2526 3.14844 -2.6437 9.77066 2.65609 12.718 15.0185 0.642334 1.40707 44.4216 20.2223 -1.82778 -25.1462 -0.149191 -1.31982e-009 8.75243e-006 -1.47702e-008 
69.3012 94.0651 4.53201 -34.0416 8.04702 -76.2261 7.2283 -62.4059 0.894128 -179.689 62.5369 -174.976 20.8188 19.7008 -4.9959 0.0462048 0.000530889 0.662642 -0.293343 9.85148 0.214098 2.90518 7.52503 -0.852646 1.20409 -1.48167 1.28544 -38.6867 7.83681 -13.8497 -23.1142 -13.8013 6.39125 -32.5737 6.03672 -54.3275 10.7293 9.82427 4.71437 46.0316 11.3178 17.3484 13.946 -46.0108 -31.4485 5.51325 28.8316 3.86403 -2.71003 9.76358 2.82551 11.3152 13.679 1.55247 1.43414 45.6949 19.9272 -2.47948 -26.1837 -0.269743 -1.31982e-009 8.75243e-006 -1.47702e-008 
68.9509 93.546 4.53457 -32.688 7.24778 -77.0033 8.67143 -60.3908 3.30831 179.968 52.828 -170.915 23.9877 25.5374 -6.98403 0.0462048 0.000530889 0.662642 -1.17752 7.9842 0.619582 2.50446 8.38048 -0.921686 1.1143 -1.36855 1.18657 -38.222 7.62142 -13.561 -22.3914 -12.3134 9.05577 -32.529 6.6316 -55.0205 10.6269 9.84711 4.98227 45.7522 11.1538 17.1643 13.8165 -46.321 -32.4045 5.19093 28.0968 5.14828 -3.20384 9.7293 2.792 9.99603 12.254 2.44605 1.46787 46.9869 19.7816 -2.92725 -27.0528 -0.36353 -1.31982e-009 8.75243e-006 -1.47702e-008 
68.7709 93.1247 4.55683 -31.6651 6.73108 -77.5308 9.23178 -59.5143 5.05655 179.755 45.567 -165.809 27.8256 30.8303 -9.42984 0.0462048 0.000530889 0.662642 -1.24288 6.73806 0.92038 1.829 9.00933 -0.814836 0.882599 -1.50512 0.810621 -38.0535 7.58961 -13.5568 -21.5515 -10.8876 10.4338 -31.688 6.88805 -54.7671 11.0981 9.86523 5.20927 45.5859 11.0409 17.0252 13.5822 -46.4596 -33.3606 4.95843 27.3044 6.90984 -3.55921 9.70502 2.75371 9.17536 11.0224 3.2052 1.49295 48.064 19.5665 -3.20491 -27.7245 -0.428637 -1.31982e-009 8.75243e-006 -1.47702e-008 
68.6996 92.8885 4.62697 -31.2204 6.39116 -77.5911 8.31362 -60.0851 4.90689 179.621 42.2374 -161.559 29.7666 33.2862 -10.773 0.0462048 0.000530889 0.662642 -0.947288 6.48956 0.97654 1.36276 9.11695 -0.742225 0.803649 -1.90255 0.474712 -38.0645 7.61828 -13.6161 -20.9713 -10.3954 10.7845 -30.655 6.92327 -54.0822 12.0352 9.86995 5.27499 45.74 11.0903 17.0512 13.0811 -46.2818 -33.9925 4.81589 26.6311 8.61996 -3.56553 9.70219 2.86279 8.77382 10.4081 3.58176 1.50249 48.6632 19.3299 -3.26034 -28.1157 -0.448334 -1.31982e-009 8.75243e-006 -1.47702e-008 
68.8012 93.023 4.82044 -31.657 6.39597 -77.224 5.99256 -62.5507 2.04097 179.555 44.155 -162.215 28.4784 33.0802 -10.2398 0.0462048 0.000530889 0.662642 -0.0681396 7.45421 0.628722 1.35216 8.84675 -0.77032 0.906668 -2.81892 0.320286 -38.0391 7.60947 -13.6066 -20.7069 -11.199 10.6177 -29.8168 7.18652 -53.806 13.4394 9.84409 5.04863 46.081 11.2634 17.2267 12.8306 -45.7674 -33.6308 4.77145 26.0566 9.94092 -3.60583 9.69728 2.95327 8.86533 10.9389 3.41648 1.48384 48.2445 19.2792 -2.96915 -27.9227 -0.390014 -1.31982e-009 8.75243e-006 -1.47702e-008 
69.0885 93.4332 5.09888 -32.9962 6.84428 -76.8277 3.10136 -66.0145 -2.54567 179.735 51.2556 -167.712 25.7601 31.8993 -8.95109 0.0462048 0.000530889 0.662642 1.68675 9.42983 -0.00642982 1.29081 8.56946 -0.728505 0.984101 -4.06189 0.18946 -37.8896 7.57616 -13.592 -20.4557 -12.7561 10.1668 -29.5371 7.75641 -54.3638 14.8487 9.78195 4.56018 46.3874 11.4524 17.4432 13.4406 -44.6325 -32.1344 4.79736 25.5256 11.4178 -3.91439 9.67688 2.88273 9.48641 12.61 2.9773 1.45051 46.9963 19.4878 -2.44781 -27.2348 -0.282089 -1.31982e-009 8.75243e-006 -1.47702e-008 
69.5845 93.928 5.37257 -34.7737 7.69594 -76.6642 0.805012 -69.0173 -6.81291 -179.813 62.6476 -173.937 23.7714 30.8116 -8.00608 0.0462048 0.000530889 0.662642 4.31605 11.9123 -0.819313 0.662444 8.35334 -0.516233 0.990939 -4.9366 0.107004 -37.6855 7.55177 -13.619 -19.9453 -14.2163 9.37317 -29.8505 8.41869 -55.5137 15.5573 9.70863 4.01515 46.6122 11.5984 17.6134 15.4588 -41.9146 -29.8657 4.52673 24.2905 14.1587 -4.22172 9.65594 2.84491 10.472 14.7024 2.49443 1.42489 45.4712 20.0087 -1.80619 -26.2757 -0.157768 -1.31982e-009 8.75243e-006 -1.47702e-008 
70.3846 94.4518 5.59276 -36.2682 8.80429 -76.6913 -0.55466 -71.0037 -9.80121 -178.896 77.7457 -178.99 23.1761 29.6029 -7.55171 0.0462048 0.000530889 0.662642 7.26756 14.4388 -1.76831 -0.0765084 8.03396 -0.306656 0.975294 -5.2612 0.393975 -37.6187 7.55372 -13.6502 -19.1894 -15.4137 8.32969 -30.1501 9.21851 -56.8552 15.5141 9.65676 3.59978 46.76 11.6815 17.7008 18.3132 -37.6946 -27.7267 3.6275 21.9938 18.4816 -4.32832 9.64201 3.06807 11.4892 16.2531 1.9716 1.41705 43.9626 20.8543 -1.02015 -25.0725 -0.0211525 -1.31982e-009 8.75243e-006 -1.47702e-008 
71.4191 94.907 5.70106 -37.0205 9.72987 -76.8145 -1.11602 -71.598 -11.2667 -2.99057 83.776 1.59478 22.8399 27.3463 -6.98815 0.0462048 0.000530889 0.662642 9.30727 16.7723 -2.61486 -0.0412386 7.6059 -0.332769 0.839866 -5.65118 1.13236 -37.81 7.60729 -13.6932 -18.4479 -16.8013 7.35323 -29.7598 10.2896 -58.1655 15.439 9.61941 3.29286 46.8065 11.704 17.7215 19.7634 -35.1583 -26.8785 2.5082 21.0162 23.2019 -4.44996 9.62175 3.44684 12.1627 16.7655 1.60674 1.41417 42.7391 21.5942 -0.310059 -23.8158 0.0868505 -1.31982e-009 8.75243e-006 -1.47702e-008 
72.5152 95.2704 5.67093 -37.2198 10.1382 -76.8281 -0.785405 -70.5934 -10.7147 -1.03027 63.1012 -4.13548 20.4335 23.427 -5.55393 0.0462048 0.000530889 0.662642 9.92721 18.9433 -3.22103 0.924708 7.21187 -0.649229 0.729874 -6.25617 2.09959 -38.0908 7.70988 -13.8088 -18.0056 -18.5101 6.61373 -28.7916 11.3639 -59.2014 15.8309 9.57514 3.00376 46.7966 11.7044 17.7265 19.1372 -35.9889 -27.2247 1.75594 22.5201 26.8483 -4.81777 9.58376 3.7481 12.5074 16.6186 1.57016 1.38845 41.7196 21.6235 -0.0495445 -22.6607 0.118187 -1.31982e-009 8.75243e-006 -1.47702e-008 
73.5461 95.6071 5.53862 -37.4019 9.99307 -76.5029 -0.207943 -68.2755 -8.2135 -0.834171 43.0217 -8.34567 15.4403 16.1831 -3.25605 0.0462048 0.000530889 0.662642 9.78497 21.0836 -3.69673 2.03867 6.84915 -1.16356 0.748932 -6.59239 2.84446 -38.1801 7.80299 -13.9792 -17.9644 -20.0242 5.96998 -27.9159 11.987 -59.6495 16.3054 9.53858 2.80088 46.7776 11.7032 17.7327 19.0964 -36.7259 -27.2981 1.49929 22.9788 28.5456 -5.32992 9.53703 3.91783 12.6831 16.5604 1.64514 1.33527 40.5941 20.9603 -0.243009 -21.5646 0.0872403 -1.31982e-009 8.75243e-006 -1.47702e-008 
74.1988 95.8893 5.38064 -37.8199 9.38915 -75.7687 -0.968135 -65.9098 -5.08665 -0.852048 27.9709 -12.7643 10.9666 5.07244 -1.30171 0.0462048 0.000530889 0.662642 9.57415 22.9356 -4.19612 2.4689 6.3564 -1.69421 0.871655 -6.35288 3.09134 -38.0971 7.85193 -14.1213 -18.2256 -20.8706 5.16507 -27.3297 12.0904 -59.4299 16.2078 9.54737 2.85257 46.7009 11.6735 17.7118 19.742 -37.1339 -27.249 1.64187 22.7571 28.0848 -5.65493 9.50825 3.98356 12.6982 16.9742 1.47427 1.27658 39.4921 20.1139 -0.488341 -20.7188 0.0546285 -1.31982e-009 8.75243e-006 -1.47702e-008 
